<svg version="1.1" id="Layer_1" xmlns="http://www.w3.org/2000/svg" xmlns:xlink="http://www.w3.org/1999/xlink" x="0px" y="0px"
	 width="100%" viewBox="0 0 622 134" enable-background="new 0 0 622 134" xml:space="preserve">
<path fill="#020202" opacity="1.000000" stroke="none" 
	d="
M416.000000,135.000000 
	C277.333344,135.000000 139.166718,135.000000 1.000056,135.000000 
	C1.000037,90.333366 1.000037,45.666733 1.000019,1.000074 
	C208.333267,1.000049 415.666534,1.000049 622.999878,1.000025 
	C622.999878,45.666592 622.999878,90.333183 622.999939,134.999878 
	C554.166687,135.000000 485.333344,135.000000 416.000000,135.000000 
M65.250298,15.795442 
	C63.158489,15.594661 61.068443,15.372917 58.974590,15.196416 
	C42.188488,13.781425 27.969179,18.851646 16.442587,31.448486 
	C-5.443991,55.367256 1.596338,94.597519 30.494781,109.297745 
	C40.767391,114.523285 51.575821,116.168739 63.795837,115.132660 
	C66.288750,115.063484 68.831352,115.289040 71.266724,114.878532 
	C90.915054,111.566643 107.626915,95.623596 111.864456,76.305466 
	C116.261749,56.259079 108.470573,35.614670 91.555725,24.142990 
	C83.989082,19.011286 75.812607,14.699216 65.250298,15.795442 
M198.745285,15.083940 
	C195.371475,14.661340 196.063324,17.031033 196.064163,18.959167 
	C196.071289,35.292194 196.069000,51.625225 196.069504,67.958252 
	C196.069565,69.666122 196.069504,71.373993 196.069504,74.367828 
	C180.210953,55.264420 165.352859,37.328938 150.420761,19.455276 
	C149.324326,18.142834 147.745270,16.439953 146.301880,16.350529 
	C140.541412,15.993639 134.745850,16.203344 128.876587,16.203344 
	C128.876587,49.413002 128.876587,82.004799 128.876587,114.885483 
	C136.505539,114.885483 143.900604,114.885483 151.890320,114.885483 
	C151.890320,95.598251 151.890320,76.608162 151.890320,56.614044 
	C153.288498,58.181416 153.949738,58.877598 154.561356,59.614944 
	C168.364456,76.255493 182.137817,92.920830 195.997421,109.514137 
	C197.421097,111.218620 199.251770,113.602043 201.069778,113.770660 
	C206.946228,114.315712 212.904922,113.974014 218.571686,113.974014 
	C218.571686,80.694656 218.571686,47.962547 218.571686,15.081150 
	C212.007034,15.081150 205.857330,15.081150 198.745285,15.083940 
M433.713318,94.149521 
	C441.494019,81.269287 443.647552,67.425003 440.176117,52.866493 
	C434.377899,28.549915 414.240601,13.952546 386.856232,13.872641 
	C352.744537,13.773104 328.314880,43.966125 335.849854,77.219223 
	C340.824707,99.174156 354.989777,112.495728 376.775757,116.453560 
	C399.565460,120.593742 419.215759,114.378281 433.713318,94.149521 
M505.144012,18.145283 
	C486.965576,17.195946 468.787170,16.246611 450.469666,15.290011 
	C450.469666,49.443226 450.469666,82.143372 450.469666,114.754333 
	C458.105957,114.754333 465.383301,114.754333 473.158142,114.754333 
	C473.158142,104.461960 473.158142,94.414116 473.158142,84.005325 
	C476.962219,84.005325 480.306061,84.309044 483.570404,83.929329 
	C487.758850,83.442131 490.213623,84.943764 492.293457,88.627655 
	C496.788452,96.589592 501.725342,104.304489 506.585876,112.054985 
	C507.310120,113.209862 508.577576,114.816154 509.632355,114.845932 
	C517.839661,115.077530 526.056458,114.973885 535.017151,114.973885 
	C527.161621,102.757988 519.822083,91.344582 512.750244,80.347343 
	C516.535522,77.017448 520.521179,74.412827 523.341980,70.878563 
	C537.875854,52.668854 529.150391,26.669575 505.144012,18.145283 
M579.501160,95.468811 
	C574.193909,95.468811 568.886658,95.468811 563.325378,95.468811 
	C563.325378,88.437622 563.325378,81.746643 563.325378,74.760056 
	C578.980835,74.760056 594.248840,74.760056 609.473633,74.760056 
	C609.473633,68.092110 609.473633,61.728653 609.473633,54.929596 
	C593.827698,54.929596 578.590820,54.929596 563.391968,54.929596 
	C563.391968,48.417850 563.391968,42.369865 563.391968,35.759727 
	C580.445984,35.759727 597.155273,35.759727 613.580444,35.759727 
	C613.580444,28.935591 613.580444,22.683651 613.580444,16.518486 
	C588.996704,16.518486 564.768555,16.518486 540.434570,16.518486 
	C540.434570,49.427933 540.434570,82.001762 540.434570,114.790543 
	C565.421265,114.790543 590.178467,114.790543 615.107788,114.790543 
	C615.107788,108.434875 615.107788,102.184769 615.107788,96.029922 
	C614.563843,95.799271 614.271851,95.567978 613.978943,95.566772 
	C602.819702,95.520874 591.660400,95.496094 579.501160,95.468811 
M270.995819,36.108002 
	C271.804413,35.912621 272.609070,35.699051 273.422150,35.524578 
	C285.855621,32.856632 301.584839,36.924080 306.269928,49.729214 
	C306.537811,50.461391 307.556824,51.410831 308.240875,51.422813 
	C315.327728,51.546978 322.417572,51.499180 329.576996,51.499180 
	C326.212677,27.244102 302.007233,11.189226 273.907043,14.014720 
	C245.271500,16.894041 225.401215,40.300591 227.379669,69.391579 
	C229.286560,97.430283 249.996109,117.667870 280.778717,117.693001 
	C306.247498,117.713783 330.124390,98.569557 330.352295,78.482384 
	C323.564331,78.482384 316.767761,78.377235 309.981598,78.594872 
	C308.954590,78.627808 307.512177,79.961365 307.045868,81.034103 
	C302.047974,92.531311 288.915253,97.352005 279.664124,96.859352 
	C264.362488,96.044510 253.035233,85.793129 250.823776,71.733994 
	C248.266388,55.475784 255.354599,42.582203 270.995819,36.108002 
z"/>
<path fill="#FAFBFB" opacity="1.000000" stroke="none" 
	d="
M199.226456,15.082544 
	C205.857330,15.081150 212.007034,15.081150 218.571686,15.081150 
	C218.571686,47.962547 218.571686,80.694656 218.571686,113.974014 
	C212.904922,113.974014 206.946228,114.315712 201.069778,113.770660 
	C199.251770,113.602043 197.421097,111.218620 195.997421,109.514137 
	C182.137817,92.920830 168.364456,76.255493 154.561356,59.614944 
	C153.949738,58.877598 153.288498,58.181416 151.890320,56.614044 
	C151.890320,76.608162 151.890320,95.598251 151.890320,114.885483 
	C143.900604,114.885483 136.505539,114.885483 128.876587,114.885483 
	C128.876587,82.004799 128.876587,49.413002 128.876587,16.203344 
	C134.745850,16.203344 140.541412,15.993639 146.301880,16.350529 
	C147.745270,16.439953 149.324326,18.142834 150.420761,19.455276 
	C165.352859,37.328938 180.210953,55.264420 196.069504,74.367828 
	C196.069504,71.373993 196.069565,69.666122 196.069504,67.958252 
	C196.069000,51.625225 196.071289,35.292194 196.064163,18.959167 
	C196.063324,17.031033 195.371475,14.661340 199.226456,15.082544 
z"/>
<path fill="#FAFAFA" opacity="1.000000" stroke="none" 
	d="
M433.494843,94.439941 
	C419.215759,114.378281 399.565460,120.593742 376.775757,116.453560 
	C354.989777,112.495728 340.824707,99.174156 335.849854,77.219223 
	C328.314880,43.966125 352.744537,13.773104 386.856232,13.872641 
	C414.240601,13.952546 434.377899,28.549915 440.176117,52.866493 
	C443.647552,67.425003 441.494019,81.269287 433.494843,94.439941 
M386.653717,97.061661 
	C387.319336,97.066109 387.985962,97.096817 388.650421,97.071121 
	C401.716614,96.565666 411.352203,90.582199 416.140503,78.357689 
	C421.067810,65.778214 419.577911,53.546833 410.147522,43.534256 
	C401.397797,34.244442 390.157349,32.061783 378.090942,35.997971 
	C363.846771,40.644566 356.034973,54.288452 357.880280,70.432693 
	C359.537781,84.933807 370.591583,95.486893 386.653717,97.061661 
z"/>
<path fill="#FAFAFB" opacity="1.000000" stroke="none" 
	d="
M505.539368,18.248318 
	C529.150391,26.669575 537.875854,52.668854 523.341980,70.878563 
	C520.521179,74.412827 516.535522,77.017448 512.750244,80.347343 
	C519.822083,91.344582 527.161621,102.757988 535.017151,114.973885 
	C526.056458,114.973885 517.839661,115.077530 509.632355,114.845932 
	C508.577576,114.816154 507.310120,113.209862 506.585876,112.054985 
	C501.725342,104.304489 496.788452,96.589592 492.293457,88.627655 
	C490.213623,84.943764 487.758850,83.442131 483.570404,83.929329 
	C480.306061,84.309044 476.962219,84.005325 473.158142,84.005325 
	C473.158142,94.414116 473.158142,104.461960 473.158142,114.754333 
	C465.383301,114.754333 458.105957,114.754333 450.469666,114.754333 
	C450.469666,82.143372 450.469666,49.443226 450.469666,15.290011 
	C468.787170,16.246611 486.965576,17.195946 505.539368,18.248318 
M477.544006,36.530552 
	C476.126282,36.628471 474.708557,36.726391 473.314148,36.822704 
	C473.314148,46.084606 473.314148,54.936089 473.314148,64.027718 
	C479.882263,64.027718 486.028839,64.263023 492.150482,63.972225 
	C501.195160,63.542576 507.078308,58.058990 507.115417,50.504093 
	C507.153809,42.684883 501.751190,37.514839 492.474884,36.838013 
	C487.846985,36.500347 483.185791,36.618233 477.544006,36.530552 
z"/>
<path fill="#F9FAFA" opacity="1.000000" stroke="none" 
	d="
M580.001099,95.468658 
	C591.660400,95.496094 602.819702,95.520874 613.978943,95.566772 
	C614.271851,95.567978 614.563843,95.799271 615.107788,96.029922 
	C615.107788,102.184769 615.107788,108.434875 615.107788,114.790543 
	C590.178467,114.790543 565.421265,114.790543 540.434570,114.790543 
	C540.434570,82.001762 540.434570,49.427933 540.434570,16.518486 
	C564.768555,16.518486 588.996704,16.518486 613.580444,16.518486 
	C613.580444,22.683651 613.580444,28.935591 613.580444,35.759727 
	C597.155273,35.759727 580.445984,35.759727 563.391968,35.759727 
	C563.391968,42.369865 563.391968,48.417850 563.391968,54.929596 
	C578.590820,54.929596 593.827698,54.929596 609.473633,54.929596 
	C609.473633,61.728653 609.473633,68.092110 609.473633,74.760056 
	C594.248840,74.760056 578.980835,74.760056 563.325378,74.760056 
	C563.325378,81.746643 563.325378,88.437622 563.325378,95.468811 
	C568.886658,95.468811 574.193909,95.468811 580.001099,95.468658 
z"/>
<path fill="#F9F9FA" opacity="1.000000" stroke="none" 
	d="
M270.620056,36.257858 
	C255.354599,42.582203 248.266388,55.475784 250.823776,71.733994 
	C253.035233,85.793129 264.362488,96.044510 279.664124,96.859352 
	C288.915253,97.352005 302.047974,92.531311 307.045868,81.034103 
	C307.512177,79.961365 308.954590,78.627808 309.981598,78.594872 
	C316.767761,78.377235 323.564331,78.482384 330.352295,78.482384 
	C330.124390,98.569557 306.247498,117.713783 280.778717,117.693001 
	C249.996109,117.667870 229.286560,97.430283 227.379669,69.391579 
	C225.401215,40.300591 245.271500,16.894041 273.907043,14.014720 
	C302.007233,11.189226 326.212677,27.244102 329.576996,51.499180 
	C322.417572,51.499180 315.327728,51.546978 308.240875,51.422813 
	C307.556824,51.410831 306.537811,50.461391 306.269928,49.729214 
	C301.584839,36.924080 285.855621,32.856632 273.422150,35.524578 
	C272.609070,35.699051 271.804413,35.912621 270.620056,36.257858 
z"/>
<path fill="#F35333" opacity="1.000000" stroke="none" 
	d="
M62.931656,114.775375 
	C51.575821,116.168739 40.767391,114.523285 30.494781,109.297745 
	C1.596338,94.597519 -5.443991,55.367256 16.442587,31.448486 
	C27.969179,18.851646 42.188488,13.781425 58.974590,15.196416 
	C61.068443,15.372917 63.158489,15.594661 65.825745,16.285534 
	C70.319870,18.322861 74.238541,19.870096 78.023819,21.364660 
	C75.709480,26.614805 73.747856,31.064812 71.430389,35.682045 
	C69.436943,36.066765 67.573410,36.904690 66.197403,36.403675 
	C55.102932,32.364090 44.633041,32.590397 35.278599,40.575649 
	C30.126076,44.974007 25.439734,49.810001 24.592638,57.757019 
	C26.988914,57.757019 28.793549,57.758919 30.598181,57.756683 
	C38.097843,57.747379 45.600689,57.622066 53.094299,57.829952 
	C54.482971,57.868473 56.913315,59.126453 57.015884,60.031036 
	C57.455032,63.904007 57.203041,67.855347 57.203041,72.167496 
	C51.081989,72.167496 45.777950,72.167496 40.473915,72.167496 
	C35.241959,72.167496 30.010002,72.167496 24.695023,72.167496 
	C26.699125,86.724319 44.161476,101.734894 65.099083,94.169273 
	C67.723030,93.221138 70.041534,91.882393 71.979248,95.456818 
	C74.223404,99.823647 76.423576,103.837616 79.130997,108.776993 
	C73.422295,110.890846 68.176971,112.833107 62.931656,114.775375 
z"/>
<path fill="#F9F9F9" opacity="1.000000" stroke="none" 
	d="
M71.786224,35.514820 
	C73.747856,31.064812 75.709480,26.614805 78.023819,21.364660 
	C74.238541,19.870096 70.319870,18.322861 66.209068,16.476048 
	C75.812607,14.699216 83.989082,19.011286 91.555725,24.142990 
	C108.470573,35.614670 116.261749,56.259079 111.864456,76.305466 
	C107.626915,95.623596 90.915054,111.566643 71.266724,114.878532 
	C68.831352,115.289040 66.288750,115.063484 63.363747,114.954018 
	C68.176971,112.833107 73.422295,110.890846 79.130997,108.776993 
	C76.423576,103.837616 74.223404,99.823647 72.342972,95.393379 
	C87.373901,89.358963 94.943726,78.021240 94.140427,62.808769 
	C93.467339,50.061882 84.279785,38.844109 71.786224,35.514820 
z"/>
<path fill="#020202" opacity="1.000000" stroke="none" 
	d="
M386.203491,97.052414 
	C370.591583,95.486893 359.537781,84.933807 357.880280,70.432693 
	C356.034973,54.288452 363.846771,40.644566 378.090942,35.997971 
	C390.157349,32.061783 401.397797,34.244442 410.147522,43.534256 
	C419.577911,53.546833 421.067810,65.778214 416.140503,78.357689 
	C411.352203,90.582199 401.716614,96.565666 388.650421,97.071121 
	C387.985962,97.096817 387.319336,97.066109 386.203491,97.052414 
z"/>
<path fill="#020202" opacity="1.000000" stroke="none" 
	d="
M478.041840,36.530304 
	C483.185791,36.618233 487.846985,36.500347 492.474884,36.838013 
	C501.751190,37.514839 507.153809,42.684883 507.115417,50.504093 
	C507.078308,58.058990 501.195160,63.542576 492.150482,63.972225 
	C486.028839,64.263023 479.882263,64.027718 473.314148,64.027718 
	C473.314148,54.936089 473.314148,46.084606 473.314148,36.822704 
	C474.708557,36.726391 476.126282,36.628471 478.041840,36.530304 
z"/>
<path fill="#050303" opacity="1.000000" stroke="none" 
	d="
M71.430389,35.682045 
	C84.279785,38.844109 93.467339,50.061882 94.140427,62.808769 
	C94.943726,78.021240 87.373901,89.358963 72.299004,95.040527 
	C70.041534,91.882393 67.723030,93.221138 65.099083,94.169273 
	C44.161476,101.734894 26.699125,86.724319 24.695023,72.167496 
	C30.010002,72.167496 35.241959,72.167496 40.473915,72.167496 
	C45.777950,72.167496 51.081989,72.167496 57.203041,72.167496 
	C57.203041,67.855347 57.455032,63.904007 57.015884,60.031036 
	C56.913315,59.126453 54.482971,57.868473 53.094299,57.829952 
	C45.600689,57.622066 38.097843,57.747379 30.598181,57.756683 
	C28.793549,57.758919 26.988914,57.757019 24.592638,57.757019 
	C25.439734,49.810001 30.126076,44.974007 35.278599,40.575649 
	C44.633041,32.590397 55.102932,32.364090 66.197403,36.403675 
	C67.573410,36.904690 69.436943,36.066765 71.430389,35.682045 
z"/>
</svg>